<svg width="300" height="200" viewBox="0 0 300 200" fill="none" xmlns="http://www.w3.org/2000/svg">

  <g transform="translate(50, 80)">
    <path d="M20 40L0 40L10 0L30 0L40 40Z" fill="#4CAF50"/> <rect x="5" y="30" width="30" height="10" fill="#388E3C"/> <rect x="15" y="10" width="10" height="20" fill="#81C784"/> </g>

  <g transform="translate(120, 50)">
    <circle cx="10" cy="10" r="10" fill="#F44336"/> <circle cx="30" cy="20" r="8" fill="#FFEB3B"/> <rect x="5" y="0" width="15" height="20" fill="#8BC34A"/> </g>

    <g transform="translate(180, 100)">
        <polygon points="10,0 0,20 20,20" fill="#FF9800"/> <ellipse cx="30" cy="10" rx="10" ry="5" fill="#9C27B0" /> </g>

  <g transform="translate(220, 30)">
    <rect x="0" y="5" width="20" height="10" fill="#673AB7"/> <circle cx="10" cy="25" r="7" fill="#03A9F4"/> </g>


    <g transform="translate(150, 10)">
        <path d="M10 0 L0 20 L20 20 Z" fill="#795548"/> </g>

</svg>